<svg width="279" height="64" viewBox="0 0 279 64" fill="none" xmlns="http://www.w3.org/2000/svg">
<path d="M3.77156 20.48H2.15156V12.2H26.6316V20.48H25.0116V13.64H18.5316V39.56H21.4116V41H7.37156V39.56H10.2516V13.64H3.77156V20.48ZM55.9814 39.56V41H48.1694L44.8214 37.652V20.84H41.9414L39.6014 23.18V39.56H41.7614V41H34.6694L31.3214 37.652V10.76H28.4414V9.32H36.2534L39.6014 12.668V20.948L41.1494 19.4H49.7534L53.1014 22.748V39.56H55.9814ZM61.5035 41L58.1555 37.652V22.748L61.5035 19.4H75.3275L78.6755 22.748V28.652L75.3275 32H66.4355V39.56H74.7155L77.7395 36.536L78.8555 37.652L75.5075 41H61.5035ZM66.4355 20.84V30.56H70.3955V20.84H66.4355ZM112.333 39.56V32.72H113.953V41H90.1927V39.56H93.0727V13.64H90.1927V12.2H104.233V13.64H101.353V39.56H112.333ZM146.866 41.36H145.246V33.62H146.866V36.32L150.106 39.56H157.702L145.606 26.744V22.388L148.594 19.4H159.214L161.662 21.848V19.04H163.282V26.78H161.662V24.08L158.422 20.84H151.546L163.642 33.656V38.012L160.654 41H149.314L146.866 38.552V41.36ZM182.888 37.652L179.54 41H172.376L169.028 37.652V14.72H166.508V13.28H173.78L176.768 16.268V21.56H181.808V23H176.768V39.56H178.748L181.772 36.536L182.888 37.652ZM194.773 15.908L198.481 12.2H212.701L215.221 14.72V11.84H216.841V21.56H215.221V16.952L211.909 13.64H203.053V39.56H212.737L215.977 36.32L217.093 37.436L213.529 41H198.481L194.773 37.292V15.908ZM226.155 16.52L220.683 11.012L226.191 5.54L231.663 11.048L226.155 16.52ZM233.643 39.56V41H225.831L222.483 37.652V20.84H219.603V19.4H227.415L230.763 22.748V39.56H233.643ZM251.092 37.652L247.744 41H240.58L237.232 37.652V14.72H234.712V13.28H241.984L244.972 16.268V21.56H250.012V23H244.972V39.56H246.952L249.976 36.536L251.092 37.652ZM276.844 22.748V46.652L273.496 50H257.872L254.884 47.012V42.8H263.164V48.56H268.564V37.112L266.836 38.84H258.772L255.424 35.492V20.84H252.544V19.4H260.176L263.524 22.748V37.4H266.044L268.564 34.88V20.84H266.044V19.4H273.496L276.844 22.748Z" fill="black"/>
<path fill-rule="evenodd" clip-rule="evenodd" d="M121.601 31.6984C121.519 31.7783 121.435 31.8603 121.359 31.936C120.814 32.4813 120.06 33.0526 119.241 33.3436C118.406 33.6404 117.311 33.6926 116.453 32.8347C115.098 31.4799 115.098 29.2834 116.453 27.9286C117.312 27.0701 118.408 27.1237 119.242 27.4212C120.06 27.713 120.814 28.2848 121.359 28.8298C121.435 28.9054 121.519 28.9874 121.601 29.0673L121.601 29.0673L121.601 29.0673L121.601 29.0673L121.601 29.0674L121.601 29.0674L121.601 29.0674L121.601 29.0675L121.601 29.0675C121.726 29.1889 121.846 29.3057 121.924 29.3883L121.933 29.3982C122.017 29.4873 122.225 29.7081 122.323 30.0317L122.398 29.9566L128.982 23.3965L129.057 23.3227C128.926 23.2829 128.819 23.2262 128.737 23.1744C128.601 23.0877 128.489 22.9843 128.415 22.912C128.341 22.8407 128.261 22.7563 128.184 22.6765L128.184 22.6765L128.184 22.6765L128.184 22.6764L128.168 22.6595C128.082 22.5697 127.988 22.4712 127.876 22.3591C127.337 21.82 126.755 21.0707 126.45 20.257C126.14 19.4299 126.059 18.3223 126.929 17.4531C128.283 16.0983 130.48 16.0983 131.835 17.4531C132.693 18.311 132.64 19.4064 132.344 20.2411C132.053 21.0597 131.481 21.8138 130.936 22.3591C130.824 22.4712 130.729 22.5697 130.644 22.6595L130.627 22.6764C130.551 22.7562 130.47 22.8407 130.397 22.912C130.322 22.9843 130.211 23.0877 130.074 23.1743C129.993 23.2262 129.885 23.2827 129.756 23.3226L129.83 23.3973L136.414 29.9816L136.453 30.0197C136.491 29.9061 136.542 29.8113 136.589 29.7374C136.676 29.6009 136.779 29.4893 136.851 29.4148C136.923 29.3413 137.007 29.2605 137.087 29.1842L137.104 29.1681C137.194 29.0822 137.292 28.9878 137.404 28.8757C137.943 28.3366 138.693 27.7546 139.506 27.4497C140.333 27.1397 141.441 27.0594 142.31 27.9286C143.665 29.2834 143.665 31.4799 142.31 32.8347C141.452 33.6926 140.357 33.6404 139.522 33.3436C138.704 33.0526 137.95 32.4813 137.404 31.936C137.292 31.824 137.194 31.7295 137.104 31.6436L137.087 31.6275L137.087 31.6274L137.087 31.6274L137.087 31.6273C137.007 31.5511 136.923 31.4704 136.851 31.397C136.779 31.3225 136.676 31.2109 136.589 31.0744C136.542 31.0005 136.491 30.9057 136.453 30.792L136.414 30.8301L129.83 37.4144L129.792 37.4525C129.906 37.4913 130.001 37.5421 130.074 37.589C130.211 37.6756 130.322 37.779 130.397 37.8513C130.47 37.9226 130.551 38.0071 130.627 38.0869L130.644 38.1038C130.73 38.1936 130.824 38.2921 130.936 38.4042C131.481 38.9495 132.053 39.7037 132.344 40.5222C132.64 41.3569 132.693 42.4523 131.835 43.3102C130.48 44.665 128.283 44.665 126.929 43.3102C126.059 42.441 126.14 41.3335 126.45 40.5063C126.755 39.6926 127.337 38.9433 127.876 38.4042C127.988 38.2921 128.082 38.1936 128.168 38.1038L128.184 38.0869C128.261 38.0071 128.341 37.9226 128.415 37.8513C128.489 37.779 128.601 37.6756 128.737 37.5889C128.811 37.542 128.906 37.4913 129.02 37.4525L128.981 37.4136L122.397 30.8051L122.324 30.7318C122.226 31.0566 122.017 31.2783 121.933 31.3676L121.924 31.3775C121.846 31.4601 121.726 31.5769 121.601 31.6984ZM121.375 30.3829C121.375 30.2413 121.229 30.0996 120.937 29.8163C120.854 29.7357 120.759 29.6437 120.652 29.5369C119.688 28.5726 118.124 27.6715 117.16 28.6357C116.196 29.6 116.196 31.1633 117.16 32.1276C118.124 33.0918 119.688 32.1931 120.652 31.2289C120.759 31.1221 120.854 31.0301 120.937 30.9495C121.229 30.6662 121.375 30.5245 121.375 30.3829ZM130.229 21.652C131.193 20.6878 132.092 19.1244 131.128 18.1602C130.163 17.1959 128.6 17.1959 127.636 18.1602C126.671 19.1244 127.619 20.6878 128.583 21.652C128.708 21.7776 128.813 21.8868 128.902 21.9797L128.902 21.9797L128.902 21.9797L128.902 21.9797C129.154 22.2434 129.28 22.3752 129.406 22.3752C129.532 22.3752 129.658 22.2434 129.91 21.9797C129.999 21.8868 130.103 21.7776 130.229 21.652ZM141.603 28.6357C142.567 29.6 142.567 31.1633 141.603 32.1276C140.639 33.0918 139.076 32.1931 138.111 31.2289C137.986 31.1033 137.876 30.9989 137.784 30.9101C137.52 30.658 137.388 30.5319 137.388 30.4058C137.388 30.2798 137.52 30.1537 137.784 29.9016L137.784 29.9015L137.784 29.9015C137.877 29.8127 137.986 29.7083 138.111 29.5828C139.076 28.6186 140.639 27.6715 141.603 28.6357ZM131.128 42.6031C132.092 41.6389 131.193 40.0755 130.229 39.1113C130.103 38.9857 129.999 38.8765 129.91 38.7836C129.658 38.5199 129.532 38.3881 129.406 38.3881C129.28 38.3881 129.154 38.5199 128.902 38.7836L128.902 38.7836C128.813 38.8765 128.708 38.9857 128.583 39.1113C127.619 40.0755 126.671 41.6389 127.636 42.6031C128.6 43.5674 130.163 43.5674 131.128 42.6031ZM129.407 36.1408L123.67 30.3832L129.405 24.6693L135.142 30.4058L129.407 36.1408Z" fill="black"/>
<path d="M121.601 31.6984L122.124 32.236L122.124 32.236L121.601 31.6984ZM119.241 33.3436L119.492 34.0503L119.492 34.0503L119.241 33.3436ZM119.242 27.4212L119.494 26.7148L119.494 26.7148L119.242 27.4212ZM121.601 29.0673L122.132 28.5369L122.124 28.5297L121.601 29.0673ZM121.601 29.0673L121.071 29.5977L121.078 29.6045L121.601 29.0673ZM121.601 29.0674L122.132 28.5371L122.125 28.5303L121.601 29.0674ZM121.601 29.0675L121.071 29.5979L121.078 29.6051L121.601 29.0675ZM121.924 29.3883L121.377 29.9014L121.377 29.9022L121.924 29.3883ZM121.933 29.3982L121.387 29.9122L121.387 29.9125L121.933 29.3982ZM122.323 30.0317L121.605 30.2487L121.967 31.4453L122.852 30.563L122.323 30.0317ZM122.398 29.9566L122.928 30.4879L122.928 30.4879L122.398 29.9566ZM128.982 23.3965L128.453 22.8652L128.453 22.8652L128.982 23.3965ZM129.057 23.3227L129.586 23.854L130.471 22.9718L129.276 22.6056L129.057 23.3227ZM128.737 23.1744L129.139 22.5411L129.139 22.5411L128.737 23.1744ZM128.415 22.912L128.937 22.3738L128.937 22.3738L128.415 22.912ZM128.184 22.6765L127.632 23.1833L127.637 23.1891L127.642 23.1948L128.184 22.6765ZM128.184 22.6765L128.737 22.1697L128.726 22.1577L128.715 22.1462L128.184 22.6765ZM128.184 22.6764L127.642 23.1947L127.648 23.2008L127.654 23.2068L128.184 22.6764ZM128.168 22.6595L128.71 22.1413L128.71 22.1412L128.168 22.6595ZM126.45 20.257L127.152 19.9938L127.152 19.9938L126.45 20.257ZM132.344 20.2411L131.637 19.9898L131.637 19.9898L132.344 20.2411ZM130.644 22.6595L130.102 22.1412L130.101 22.1413L130.644 22.6595ZM130.627 22.6764L130.085 22.1582L130.085 22.1582L130.627 22.6764ZM130.397 22.912L130.919 23.4502L130.919 23.4502L130.397 22.912ZM130.074 23.1743L129.673 22.5411L129.673 22.5411L130.074 23.1743ZM129.756 23.3226L129.536 22.6056L128.344 22.9712L129.225 23.8529L129.756 23.3226ZM129.83 23.3973L130.361 22.867L130.361 22.867L129.83 23.3973ZM136.414 29.9816L135.884 30.5119L135.884 30.5119L136.414 29.9816ZM136.453 30.0197L135.922 30.55L136.774 31.4014L137.162 30.2618L136.453 30.0197ZM136.589 29.7374L135.956 29.3356L135.956 29.3356L136.589 29.7374ZM136.851 29.4148L136.313 28.8924L136.313 28.8924L136.851 29.4148ZM137.087 29.1842L137.605 29.7263L137.605 29.7263L137.087 29.1842ZM137.104 29.1681L137.622 29.7102L137.622 29.7102L137.104 29.1681ZM139.506 27.4497L139.769 28.152L139.769 28.152L139.506 27.4497ZM139.522 33.3436L139.271 34.0503L139.271 34.0503L139.522 33.3436ZM137.104 31.6436L137.622 31.1016L137.622 31.1015L137.104 31.6436ZM137.087 31.6275L136.557 32.1578L136.563 32.1638L136.569 32.1696L137.087 31.6275ZM137.087 31.6274L137.617 31.0971L137.607 31.0869L137.596 31.0771L137.087 31.6274ZM137.087 31.6273L136.568 32.1696L136.577 32.1777L137.087 31.6273ZM136.851 31.397L137.39 30.8746L137.39 30.8746L136.851 31.397ZM136.589 31.0744L137.222 30.6725L137.222 30.6725L136.589 31.0744ZM136.453 30.792L137.162 30.5499L136.774 29.4102L135.922 30.2617L136.453 30.792ZM136.414 30.8301L135.884 30.2998L135.884 30.2998L136.414 30.8301ZM129.83 37.4144L130.361 37.9447L130.361 37.9447L129.83 37.4144ZM129.792 37.4525L129.262 36.9222L128.41 37.7736L129.55 38.1624L129.792 37.4525ZM130.074 37.589L129.673 38.2222L129.673 38.2222L130.074 37.589ZM130.397 37.8513L130.919 37.3131L130.919 37.3131L130.397 37.8513ZM130.627 38.0869L130.085 38.6051L130.085 38.6052L130.627 38.0869ZM130.644 38.1038L130.101 38.6221L130.102 38.6221L130.644 38.1038ZM132.344 40.5222L131.637 40.7735L131.637 40.7735L132.344 40.5222ZM126.45 40.5063L125.747 40.2431L125.747 40.2431L126.45 40.5063ZM128.168 38.1038L128.71 38.6221L128.71 38.622L128.168 38.1038ZM128.184 38.0869L128.726 38.6052L128.726 38.6051L128.184 38.0869ZM128.415 37.8513L128.937 38.3895L128.937 38.3895L128.415 37.8513ZM128.737 37.5889L129.139 38.2222L129.139 38.2222L128.737 37.5889ZM129.02 37.4525L129.262 38.1624L130.399 37.7744L129.551 36.9232L129.02 37.4525ZM128.981 37.4136L129.512 36.8842L129.512 36.8842L128.981 37.4136ZM122.397 30.8051L121.865 31.3345L121.865 31.3345L122.397 30.8051ZM122.324 30.7318L122.855 30.2024L121.967 29.3112L121.605 30.5162L122.324 30.7318ZM121.933 31.3676L121.387 30.8533L121.387 30.8536L121.933 31.3676ZM121.924 31.3775L121.377 30.8636L121.377 30.8644L121.924 31.3775ZM120.937 29.8163L120.415 30.3548L120.415 30.3548L120.937 29.8163ZM121.375 30.3829L120.625 30.3829L120.625 30.3829L121.375 30.3829ZM120.937 30.9495L120.415 30.411L120.415 30.411L120.937 30.9495ZM128.902 21.9797L128.36 22.498L128.365 22.5041L128.371 22.51L128.902 21.9797ZM128.902 21.9797L129.444 21.4614L129.438 21.4553L129.432 21.4494L128.902 21.9797ZM129.406 22.3752L129.406 23.1252L129.406 23.1252L129.406 22.3752ZM129.91 21.9797L129.368 21.4614L129.368 21.4614L129.91 21.9797ZM137.784 30.9101L138.302 30.368L138.302 30.368L137.784 30.9101ZM137.388 30.4058L138.138 30.4058L138.138 30.4058L137.388 30.4058ZM137.784 29.9016L138.302 30.4436L138.308 30.4378L138.314 30.4319L137.784 29.9016ZM137.784 29.9015L137.265 29.3594L137.259 29.3652L137.253 29.3711L137.784 29.9015ZM129.91 38.7836L129.368 39.3019L129.368 39.3019L129.91 38.7836ZM129.406 38.3881L129.406 39.1381L129.406 39.1381L129.406 38.3881ZM128.902 38.7836L129.432 39.3139L129.438 39.308L129.444 39.3019L128.902 38.7836ZM128.902 38.7836L128.371 38.2533L128.365 38.2592L128.36 38.2653L128.902 38.7836ZM123.67 30.3832L123.141 29.8519L122.61 30.3812L123.139 30.9126L123.67 30.3832ZM129.407 36.1408L128.875 36.6701L129.406 37.2024L129.937 36.6711L129.407 36.1408ZM129.405 24.6693L129.936 24.139L129.406 23.6096L128.876 24.138L129.405 24.6693ZM135.142 30.4058L135.672 30.9362L136.202 30.4058L135.672 29.8755L135.142 30.4058ZM121.889 32.4663C121.961 32.395 122.041 32.3168 122.124 32.236L121.078 31.1608C120.997 31.2399 120.909 31.3257 120.829 31.4057L121.889 32.4663ZM119.492 34.0503C120.451 33.7095 121.297 33.0591 121.889 32.4663L120.829 31.4057C120.331 31.9036 119.668 32.3957 118.99 32.637L119.492 34.0503ZM115.923 33.365C117.066 34.5079 118.511 34.3991 119.492 34.0503L118.99 32.637C118.302 32.8817 117.556 32.8774 116.983 32.3044L115.923 33.365ZM115.923 27.3983C114.275 29.046 114.275 31.7173 115.923 33.365L116.983 32.3044C115.921 31.2425 115.921 29.5208 116.983 28.459L115.923 27.3983ZM119.494 26.7148C118.513 26.3652 117.067 26.2544 115.923 27.3983L116.983 28.459C117.557 27.8858 118.302 27.8823 118.99 28.1276L119.494 26.7148ZM121.889 28.2995C121.297 27.7073 120.452 27.0564 119.494 26.7148L118.99 28.1276C119.669 28.3695 120.331 28.8623 120.829 29.3601L121.889 28.2995ZM122.124 28.5297C122.041 28.4489 121.961 28.3707 121.889 28.2995L120.829 29.3601C120.909 29.4401 120.997 29.5258 121.078 29.6049L122.124 28.5297ZM122.131 28.537L122.131 28.537L121.071 29.5976L121.071 29.5977L122.131 28.537ZM122.132 28.537L122.131 28.537L121.071 29.5977L121.071 29.5977L122.132 28.537ZM122.132 28.537L122.132 28.537L121.071 29.5977L121.071 29.5977L122.132 28.537ZM122.125 28.5303L122.125 28.5302L121.078 29.6045L121.078 29.6046L122.125 28.5303ZM122.132 28.5371L122.132 28.5371L121.071 29.5978L121.071 29.5978L122.132 28.5371ZM122.132 28.5371L122.132 28.5371L121.071 29.5978L121.071 29.5978L122.132 28.5371ZM122.132 28.5371L122.132 28.5371L121.071 29.5978L121.071 29.5978L122.132 28.5371ZM122.132 28.5371L122.132 28.5371L121.071 29.5978L121.071 29.5978L122.132 28.5371ZM122.471 28.8752C122.379 28.777 122.244 28.6459 122.124 28.5299L121.078 29.6051C121.209 29.7319 121.314 29.8344 121.377 29.9014L122.471 28.8752ZM122.479 28.8843L122.47 28.8744L121.377 29.9022L121.387 29.9122L122.479 28.8843ZM123.041 29.8147C122.888 29.311 122.571 28.9814 122.479 28.8839L121.387 29.9125C121.463 29.9931 121.562 30.1052 121.605 30.2487L123.041 29.8147ZM122.852 30.563L122.928 30.4879L121.869 29.4253L121.793 29.5004L122.852 30.563ZM122.928 30.4879L129.512 23.9278L128.453 22.8652L121.869 29.4253L122.928 30.4879ZM129.512 23.9278L129.586 23.854L128.527 22.7914L128.453 22.8652L129.512 23.9278ZM128.336 23.8076C128.459 23.886 128.628 23.9757 128.837 24.0398L129.276 22.6056C129.225 22.59 129.179 22.5665 129.139 22.5411L128.336 23.8076ZM127.892 23.4502C127.977 23.5322 128.133 23.6789 128.336 23.8076L129.139 22.5411C129.069 22.4966 129.002 22.4364 128.937 22.3738L127.892 23.4502ZM127.642 23.1948C127.716 23.272 127.807 23.3672 127.892 23.4502L128.937 22.3738C128.876 22.3142 128.805 22.2406 128.727 22.1583L127.642 23.1948ZM127.631 23.1833L127.632 23.1833L128.737 22.1698L128.737 22.1697L127.631 23.1833ZM127.654 23.2068L127.654 23.2068L128.715 22.1462L128.715 22.1461L127.654 23.2068ZM127.654 23.2068L127.654 23.2068L128.715 22.1461L128.715 22.1461L127.654 23.2068ZM127.626 23.1778L127.642 23.1947L128.726 22.1581L128.71 22.1413L127.626 23.1778ZM127.345 22.8895C127.451 22.9951 127.541 23.0885 127.626 23.1779L128.71 22.1412C128.624 22.051 128.524 21.9472 128.406 21.8288L127.345 22.8895ZM125.747 20.5202C126.103 21.4702 126.764 22.3076 127.345 22.8895L128.406 21.8288C127.91 21.3325 127.406 20.6712 127.152 19.9938L125.747 20.5202ZM126.398 16.9227C125.235 18.0856 125.385 19.5529 125.747 20.5202L127.152 19.9938C126.895 19.3069 126.883 18.559 127.459 17.9834L126.398 16.9227ZM132.365 16.9227C130.717 15.2751 128.046 15.2751 126.398 16.9227L127.459 17.9834C128.521 16.9215 130.242 16.9215 131.304 17.9834L132.365 16.9227ZM133.05 20.4923C133.399 19.5112 133.508 18.0656 132.365 16.9227L131.304 17.9834C131.877 18.5564 131.882 19.3016 131.637 19.9898L133.05 20.4923ZM131.466 22.8895C132.059 22.2967 132.709 21.4509 133.05 20.4923L131.637 19.9898C131.396 20.6684 130.904 21.3309 130.406 21.8288L131.466 22.8895ZM131.186 23.1779C131.271 23.0885 131.361 22.9951 131.466 22.8895L130.406 21.8288C130.287 21.9472 130.188 22.051 130.102 22.1412L131.186 23.1779ZM131.17 23.1947L131.186 23.1778L130.101 22.1413L130.085 22.1582L131.17 23.1947ZM130.919 23.4502C131.005 23.3672 131.096 23.2719 131.17 23.1947L130.085 22.1582C130.007 22.2405 129.936 22.3142 129.875 22.3738L130.919 23.4502ZM130.476 23.8076C130.679 23.6789 130.835 23.5322 130.919 23.4502L129.875 22.3738C129.81 22.4364 129.743 22.4966 129.673 22.5411L130.476 23.8076ZM129.975 24.0396C130.185 23.9755 130.353 23.8859 130.476 23.8076L129.673 22.5411C129.633 22.5665 129.586 22.59 129.536 22.6056L129.975 24.0396ZM129.225 23.8529L129.3 23.9276L130.361 22.867L130.286 22.7923L129.225 23.8529ZM129.3 23.9276L135.884 30.5119L136.945 29.4512L130.361 22.867L129.3 23.9276ZM135.884 30.5119L135.922 30.55L136.983 29.4893L136.945 29.4512L135.884 30.5119ZM137.162 30.2618C137.178 30.2165 137.199 30.1753 137.222 30.1392L135.956 29.3356C135.885 29.4473 135.805 29.5957 135.743 29.7775L137.162 30.2618ZM137.222 30.1392C137.267 30.069 137.327 30.0016 137.389 29.9371L136.313 28.8924C136.231 28.977 136.084 29.1327 135.956 29.3356L137.222 30.1392ZM137.389 29.9371C137.449 29.8756 137.523 29.8051 137.605 29.7263L136.569 28.642C136.491 28.7159 136.396 28.8069 136.313 28.8924L137.389 29.9371ZM137.605 29.7263L137.622 29.7102L136.585 28.626L136.569 28.6421L137.605 29.7263ZM137.622 29.7102C137.712 29.6239 137.816 29.5245 137.934 29.406L136.874 28.3454C136.768 28.4511 136.675 28.5406 136.585 28.626L137.622 29.7102ZM137.934 29.406C138.431 28.9097 139.092 28.4058 139.769 28.152L139.243 26.7473C138.293 27.1033 137.456 27.7635 136.874 28.3454L137.934 29.406ZM139.769 28.152C140.456 27.8946 141.204 27.8834 141.78 28.4589L142.841 27.3983C141.678 26.2355 140.211 26.3849 139.243 26.7473L139.769 28.152ZM141.78 28.4589C142.842 29.5208 142.842 31.2425 141.78 32.3043L142.841 33.365C144.488 31.7173 144.488 29.046 142.841 27.3983L141.78 28.4589ZM141.78 32.3043C141.207 32.8774 140.462 32.8817 139.773 32.637L139.271 34.0503C140.252 34.3991 141.698 34.5079 142.841 33.365L141.78 32.3043ZM139.773 32.637C139.095 32.3957 138.432 31.9036 137.935 31.4057L136.874 32.4663C137.467 33.0591 138.312 33.7095 139.271 34.0503L139.773 32.637ZM137.935 31.4057C137.816 31.2873 137.712 31.1878 137.622 31.1016L136.585 32.1857C136.675 32.2712 136.768 32.3607 136.874 32.4663L137.935 31.4057ZM137.622 31.1015L137.605 31.0854L136.569 32.1696L136.586 32.1857L137.622 31.1015ZM137.617 31.0971L137.617 31.0971L136.557 32.1578L136.557 32.1578L137.617 31.0971ZM137.617 31.0971L137.617 31.0971L136.557 32.1577L136.557 32.1578L137.617 31.0971ZM137.596 31.0771L137.596 31.077L136.577 32.1777L136.577 32.1777L137.596 31.0771ZM137.605 31.0852C137.523 31.0065 137.449 30.936 137.39 30.8746L136.313 31.9193C136.396 32.0048 136.491 32.0957 136.569 32.1695L137.605 31.0852ZM137.39 30.8746C137.327 30.8101 137.267 30.7427 137.222 30.6725L135.956 31.4763C136.084 31.6791 136.231 31.8348 136.313 31.9193L137.39 30.8746ZM137.222 30.6725C137.199 30.6364 137.178 30.5952 137.162 30.5499L135.743 31.0341C135.805 31.2161 135.885 31.3645 135.956 31.4763L137.222 30.6725ZM135.922 30.2617L135.884 30.2998L136.945 31.3604L136.983 31.3223L135.922 30.2617ZM135.884 30.2998L129.3 36.884L130.361 37.9447L136.945 31.3604L135.884 30.2998ZM129.3 36.884L129.262 36.9222L130.322 37.9829L130.361 37.9447L129.3 36.884ZM130.476 36.9557C130.365 36.8848 130.216 36.8048 130.034 36.7427L129.55 38.1624C129.595 38.1778 129.636 38.1993 129.673 38.2222L130.476 36.9557ZM130.919 37.3131C130.835 37.2311 130.679 37.0844 130.476 36.9557L129.673 38.2222C129.743 38.2668 129.81 38.3269 129.875 38.3895L130.919 37.3131ZM131.17 37.5686C131.096 37.4914 131.005 37.3961 130.919 37.3131L129.875 38.3895C129.936 38.4491 130.007 38.5228 130.085 38.6051L131.17 37.5686ZM131.186 37.5855L131.17 37.5686L130.085 38.6052L130.101 38.6221L131.186 37.5855ZM131.466 37.8739C131.361 37.7682 131.271 37.6748 131.186 37.5855L130.102 38.6221C130.188 38.7124 130.287 38.8161 130.406 38.9345L131.466 37.8739ZM133.05 40.271C132.709 39.3124 132.059 38.4666 131.466 37.8739L130.406 38.9345C130.904 39.4325 131.396 40.0949 131.637 40.7735L133.05 40.271ZM132.365 43.8406C133.508 42.6977 133.399 41.2521 133.05 40.271L131.637 40.7735C131.882 41.4617 131.877 42.2069 131.304 42.7799L132.365 43.8406ZM126.398 43.8406C128.046 45.4882 130.717 45.4882 132.365 43.8406L131.304 42.7799C130.242 43.8418 128.521 43.8418 127.459 42.7799L126.398 43.8406ZM125.747 40.2431C125.385 41.2105 125.235 42.6777 126.398 43.8406L127.459 42.7799C126.883 42.2044 126.895 41.4564 127.152 40.7695L125.747 40.2431ZM127.345 37.8738C126.764 38.4557 126.103 39.2931 125.747 40.2431L127.152 40.7695C127.406 40.0921 127.91 39.4309 128.406 38.9345L127.345 37.8738ZM127.626 37.5854C127.541 37.6748 127.451 37.7682 127.345 37.8738L128.406 38.9345C128.524 38.8161 128.624 38.7123 128.71 38.6221L127.626 37.5854ZM127.642 37.5686L127.626 37.5855L128.71 38.622L128.726 38.6052L127.642 37.5686ZM127.892 37.3131C127.807 37.3961 127.716 37.4914 127.642 37.5687L128.726 38.6051C128.805 38.5228 128.876 38.4491 128.937 38.3895L127.892 37.3131ZM128.336 36.9557C128.133 37.0844 127.977 37.2311 127.892 37.3131L128.937 38.3895C129.002 38.3269 129.069 38.2667 129.139 38.2222L128.336 36.9557ZM128.778 36.7427C128.596 36.8047 128.447 36.8848 128.336 36.9557L129.139 38.2222C129.175 38.1993 129.217 38.1778 129.262 38.1624L128.778 36.7427ZM129.551 36.9232L129.512 36.8842L128.45 37.9429L128.488 37.9819L129.551 36.9232ZM129.512 36.8842L122.928 30.2758L121.865 31.3345L128.45 37.9429L129.512 36.8842ZM122.928 30.2758L122.855 30.2024L121.792 31.2611L121.865 31.3345L122.928 30.2758ZM122.479 31.8819C122.571 31.7842 122.89 31.4532 123.042 30.9474L121.605 30.5162C121.562 30.66 121.463 30.7725 121.387 30.8533L122.479 31.8819ZM122.47 31.8914L122.479 31.8815L121.387 30.8536L121.377 30.8636L122.47 31.8914ZM122.124 32.236C122.244 32.1199 122.379 31.9888 122.471 31.8906L121.377 30.8644C121.314 30.9314 121.209 31.0339 121.078 31.1608L122.124 32.236ZM120.415 30.3548C120.489 30.4272 120.547 30.4834 120.596 30.5322C120.644 30.5815 120.672 30.6116 120.687 30.6301C120.703 30.6499 120.691 30.6383 120.673 30.602C120.652 30.5595 120.625 30.4831 120.625 30.3829H122.125C122.125 30.0413 121.945 29.7977 121.844 29.6754C121.738 29.5469 121.592 29.4066 121.459 29.2778L120.415 30.3548ZM120.122 30.0672C120.233 30.1786 120.332 30.2743 120.415 30.3548L121.459 29.2778C121.376 29.1971 121.284 29.1087 121.182 29.0066L120.122 30.0672ZM117.69 29.1661C117.89 28.9662 118.174 28.8984 118.654 29.0696C119.146 29.245 119.687 29.6323 120.122 30.0672L121.182 29.0066C120.653 28.4773 119.93 27.9318 119.158 27.6567C118.374 27.3773 117.394 27.341 116.63 28.1054L117.69 29.1661ZM117.69 31.5972C117.019 30.9259 117.019 29.8374 117.69 29.1661L116.63 28.1054C115.373 29.3625 115.373 31.4008 116.63 32.6579L117.69 31.5972ZM120.122 30.6986C119.687 31.1333 119.147 31.5199 118.655 31.6948C118.175 31.8654 117.891 31.7975 117.69 31.5972L116.63 32.6579C117.394 33.4219 118.373 33.3868 119.157 33.1081C119.929 32.8336 120.653 32.2888 121.182 31.7592L120.122 30.6986ZM120.415 30.411C120.332 30.4914 120.233 30.5872 120.122 30.6986L121.182 31.7592C121.284 31.657 121.376 31.5687 121.459 31.488L120.415 30.411ZM120.625 30.3829C120.625 30.2827 120.652 30.2063 120.673 30.1638C120.691 30.1275 120.703 30.1159 120.687 30.1357C120.672 30.1542 120.644 30.1843 120.596 30.2336C120.547 30.2824 120.489 30.3386 120.415 30.411L121.459 31.488C121.592 31.3592 121.738 31.2189 121.844 31.0904C121.945 30.968 122.125 30.7245 122.125 30.3829L120.625 30.3829ZM130.597 18.6905C130.797 18.8908 130.865 19.175 130.695 19.6549C130.52 20.1468 130.133 20.687 129.699 21.1217L130.759 22.1823C131.289 21.6528 131.834 20.9292 132.108 20.1573C132.387 19.3734 132.422 18.3938 131.658 17.6298L130.597 18.6905ZM128.166 18.6905C128.837 18.0192 129.926 18.0192 130.597 18.6905L131.658 17.6298C130.401 16.3727 128.363 16.3727 127.105 17.6298L128.166 18.6905ZM129.113 21.1217C128.674 20.6823 128.274 20.1385 128.088 19.6429C127.906 19.1575 127.974 18.8823 128.166 18.6905L127.105 17.6298C126.333 18.4023 126.392 19.3909 126.684 20.1693C126.972 20.9375 127.528 21.6575 128.053 22.1824L129.113 21.1217ZM129.444 21.4614C129.355 21.3685 129.245 21.2538 129.113 21.1217L128.053 22.1824C128.171 22.3014 128.271 22.4051 128.36 22.498L129.444 21.4614ZM129.432 21.4494L129.432 21.4493L128.371 22.51L128.371 22.51L129.432 21.4494ZM129.432 21.4494L129.432 21.4494L128.371 22.51L128.371 22.51L129.432 21.4494ZM129.432 21.4494L129.432 21.4494L128.371 22.51L128.371 22.51L129.432 21.4494ZM129.406 21.6252C129.512 21.6252 129.594 21.6544 129.641 21.6776C129.681 21.6977 129.697 21.7138 129.682 21.7011C129.669 21.6896 129.644 21.6669 129.6 21.6235C129.558 21.5806 129.508 21.529 129.444 21.4614L128.36 22.498C128.473 22.6165 128.601 22.7524 128.72 22.8516C128.831 22.945 129.069 23.1252 129.406 23.1252L129.406 21.6252ZM129.368 21.4614C129.303 21.529 129.254 21.5806 129.211 21.6235C129.168 21.6669 129.143 21.6896 129.129 21.7011C129.114 21.7138 129.13 21.6977 129.171 21.6776C129.218 21.6544 129.3 21.6252 129.406 21.6252L129.406 23.1252C129.743 23.1252 129.98 22.945 130.092 22.8516C130.211 22.7524 130.339 22.6165 130.452 22.498L129.368 21.4614ZM129.699 21.1217C129.566 21.2539 129.457 21.3686 129.368 21.4614L130.452 22.498C130.541 22.4051 130.64 22.3014 130.759 22.1823L129.699 21.1217ZM142.133 32.6579C143.391 31.4008 143.391 29.3625 142.133 28.1054L141.073 29.1661C141.744 29.8374 141.744 30.9259 141.073 31.5972L142.133 32.6579ZM137.581 31.7592C138.111 32.2888 138.834 32.8336 139.606 33.1081C140.39 33.3868 141.37 33.4219 142.133 32.6579L141.073 31.5972C140.873 31.7975 140.588 31.8653 140.108 31.6948C139.617 31.5199 139.076 31.1333 138.642 30.6986L137.581 31.7592ZM137.265 31.4522C137.358 31.541 137.462 31.6402 137.581 31.7592L138.642 30.6986C138.509 30.5664 138.395 30.4568 138.302 30.368L137.265 31.4522ZM136.638 30.4059C136.638 30.7432 136.818 30.9803 136.912 31.092C137.011 31.2105 137.147 31.3389 137.265 31.4522L138.302 30.368C138.234 30.3034 138.183 30.254 138.14 30.2113C138.096 30.168 138.074 30.1432 138.062 30.1294C138.05 30.1143 138.066 30.1304 138.086 30.1712C138.109 30.2182 138.138 30.2998 138.138 30.4058L136.638 30.4059ZM137.265 29.3595C137.147 29.4728 137.011 29.6012 136.912 29.7197C136.818 29.8314 136.638 30.0685 136.638 30.4059L138.138 30.4058C138.138 30.5119 138.109 30.5935 138.086 30.6405C138.066 30.6813 138.05 30.6974 138.062 30.6823C138.074 30.6685 138.096 30.6437 138.14 30.6004C138.183 30.5577 138.234 30.5083 138.302 30.4436L137.265 29.3595ZM137.253 29.3712L137.253 29.3712L138.314 30.4319L138.314 30.4319L137.253 29.3712ZM137.253 29.3711L137.253 29.3712L138.314 30.4319L138.314 30.4318L137.253 29.3711ZM137.581 29.0525C137.462 29.1714 137.358 29.2706 137.265 29.3594L138.302 30.4436C138.395 30.3548 138.51 30.2452 138.642 30.1131L137.581 29.0525ZM142.133 28.1054C141.361 27.333 140.372 27.3921 139.594 27.6838C138.826 27.9716 138.106 28.5276 137.581 29.0525L138.642 30.1131C139.081 29.6738 139.625 29.2741 140.12 29.0884C140.606 28.9065 140.881 28.9742 141.073 29.1661L142.133 28.1054ZM129.699 39.6416C130.133 40.0763 130.52 40.6166 130.695 41.1085C130.865 41.5883 130.797 41.8725 130.597 42.0728L131.658 43.1335C132.422 42.3695 132.387 41.39 132.108 40.606C131.834 39.8341 131.289 39.1105 130.759 38.581L129.699 39.6416ZM129.368 39.3019C129.457 39.3948 129.566 39.5095 129.699 39.6416L130.759 38.581C130.64 38.4619 130.541 38.3582 130.452 38.2653L129.368 39.3019ZM129.406 39.1381C129.3 39.1381 129.218 39.1089 129.171 39.0857C129.13 39.0657 129.114 39.0495 129.129 39.0622C129.143 39.0737 129.168 39.0964 129.211 39.1398C129.254 39.1827 129.303 39.2343 129.368 39.3019L130.452 38.2653C130.339 38.1468 130.211 38.0109 130.092 37.9118C129.98 37.8184 129.743 37.6381 129.406 37.6381L129.406 39.1381ZM129.444 39.3019C129.508 39.2344 129.558 39.1827 129.6 39.1398C129.644 39.0964 129.669 39.0737 129.682 39.0622C129.697 39.0495 129.681 39.0657 129.641 39.0857C129.594 39.1089 129.512 39.1381 129.406 39.1381L129.406 37.6381C129.069 37.6381 128.831 37.8184 128.72 37.9118C128.601 38.0109 128.473 38.1469 128.36 38.2653L129.444 39.3019ZM129.432 39.314L129.432 39.3139L128.371 38.2533L128.371 38.2533L129.432 39.314ZM129.113 39.6416C129.245 39.5095 129.355 39.3948 129.444 39.3019L128.36 38.2653C128.271 38.3582 128.172 38.4619 128.053 38.5809L129.113 39.6416ZM128.166 42.0728C127.974 41.881 127.906 41.6059 128.088 41.1204C128.274 40.6248 128.674 40.081 129.113 39.6416L128.053 38.5809C127.528 39.1058 126.972 39.8258 126.684 40.594C126.392 41.3724 126.333 42.361 127.105 43.1335L128.166 42.0728ZM130.597 42.0728C129.926 42.7442 128.837 42.7442 128.166 42.0728L127.105 43.1335C128.363 44.3906 130.401 44.3906 131.658 43.1335L130.597 42.0728ZM123.139 30.9126L128.875 36.6701L129.938 35.6114L124.201 29.8538L123.139 30.9126ZM128.876 24.138L123.141 29.8519L124.2 30.9145L129.935 25.2006L128.876 24.138ZM135.672 29.8755L129.936 24.139L128.875 25.1996L134.611 30.9362L135.672 29.8755ZM129.937 36.6711L135.672 30.9362L134.611 29.8755L128.876 35.6105L129.937 36.6711Z" fill="black"/>
</svg>
