<svg width="1052" height="242" viewBox="0 0 1052 242" fill="none" xmlns="http://www.w3.org/2000/svg">
<path d="M13.2481 77.48H7.12813V46.2H99.6081V77.48H93.4881V51.64H69.0081V149.56H79.8881V155H26.8481V149.56H37.7281V51.64H13.2481V77.48ZM210.485 149.56V155H180.973L168.325 142.352V78.84H157.445L148.605 87.68V149.56H156.765V155H129.973L117.325 142.352V40.76H106.445V35.32H135.957L148.605 47.968V79.248L154.453 73.4H186.957L199.605 86.048V149.56H210.485ZM231.346 155L218.698 142.352V86.048L231.346 73.4H283.57L296.218 86.048V108.352L283.57 121H249.978V149.56H281.258L292.682 138.136L296.898 142.352L284.25 155H231.346ZM249.978 78.84V115.56H264.938V78.84H249.978ZM423.368 149.56V123.72H429.488V155H339.728V149.56H350.608V51.64H339.728V46.2H392.768V51.64H381.888V149.56H423.368ZM553.827 156.36H547.707V127.12H553.827V137.32L566.067 149.56H594.763L549.067 101.144V84.688L560.355 73.4H600.475L609.723 82.648V72.04H615.843V101.28H609.723V91.08L597.483 78.84H571.507L617.203 127.256V143.712L605.915 155H563.075L553.827 145.752V156.36ZM689.912 142.352L677.264 155H650.2L637.552 142.352V55.72H628.032V50.28H655.504L666.792 61.568V81.56H685.832V87H666.792V149.56H674.272L685.696 138.136L689.912 142.352ZM734.808 60.208L748.816 46.2H802.536L812.056 55.72V44.84H818.176V81.56H812.056V64.152L799.544 51.64H766.088V149.56H802.672L814.912 137.32L819.128 141.536L805.664 155H748.816L734.808 140.992V60.208ZM853.363 62.52L832.691 41.712L853.499 21.04L874.171 41.848L853.363 62.52ZM881.651 149.56V155H852.139L839.491 142.352V78.84H828.611V73.4H858.123L870.771 86.048V149.56H881.651ZM947.568 142.352L934.92 155H907.856L895.208 142.352V55.72H885.688V50.28H913.16L924.448 61.568V81.56H943.488V87H924.448V149.56H931.928L943.352 138.136L947.568 142.352ZM1044.86 86.048V176.352L1032.21 189H973.184L961.896 177.712V161.8H993.176V183.56H1013.58V140.312L1007.05 146.84H976.584L963.936 134.192V78.84H953.056V73.4H981.888L994.536 86.048V141.4H1004.06L1013.58 131.88V78.84H1004.06V73.4H1032.21L1044.86 86.048Z" fill="white"/>
<path d="M13.2481 77.48H7.12813V46.2H99.6081V77.48H93.4881V51.64H69.0081V149.56H79.8881V155H26.8481V149.56H37.7281V51.64H13.2481V77.48ZM210.485 149.56V155H180.973L168.325 142.352V78.84H157.445L148.605 87.68V149.56H156.765V155H129.973L117.325 142.352V40.76H106.445V35.32H135.957L148.605 47.968V79.248L154.453 73.4H186.957L199.605 86.048V149.56H210.485ZM231.346 155L218.698 142.352V86.048L231.346 73.4H283.57L296.218 86.048V108.352L283.57 121H249.978V149.56H281.258L292.682 138.136L296.898 142.352L284.25 155H231.346ZM249.978 78.84V115.56H264.938V78.84H249.978ZM423.368 149.56V123.72H429.488V155H339.728V149.56H350.608V51.64H339.728V46.2H392.768V51.64H381.888V149.56H423.368ZM553.827 156.36H547.707V127.12H553.827V137.32L566.067 149.56H594.763L549.067 101.144V84.688L560.355 73.4H600.475L609.723 82.648V72.04H615.843V101.28H609.723V91.08L597.483 78.84H571.507L617.203 127.256V143.712L605.915 155H563.075L553.827 145.752V156.36ZM689.912 142.352L677.264 155H650.2L637.552 142.352V55.72H628.032V50.28H655.504L666.792 61.568V81.56H685.832V87H666.792V149.56H674.272L685.696 138.136L689.912 142.352ZM734.808 60.208L748.816 46.2H802.536L812.056 55.72V44.84H818.176V81.56H812.056V64.152L799.544 51.64H766.088V149.56H802.672L814.912 137.32L819.128 141.536L805.664 155H748.816L734.808 140.992V60.208ZM853.363 62.52L832.691 41.712L853.499 21.04L874.171 41.848L853.363 62.52ZM881.651 149.56V155H852.139L839.491 142.352V78.84H828.611V73.4H858.123L870.771 86.048V149.56H881.651ZM947.568 142.352L934.92 155H907.856L895.208 142.352V55.72H885.688V50.28H913.16L924.448 61.568V81.56H943.488V87H924.448V149.56H931.928L943.352 138.136L947.568 142.352ZM1044.86 86.048V176.352L1032.21 189H973.184L961.896 177.712V161.8H993.176V183.56H1013.58V140.312L1007.05 146.84H976.584L963.936 134.192V78.84H953.056V73.4H981.888L994.536 86.048V141.4H1004.06L1013.58 131.88V78.84H1004.06V73.4H1032.21L1044.86 86.048Z" fill="url(#paint0_linear_112_248)" fill-opacity="0.5"/>
<path d="M460.707 111.278L462.641 109.344L462.614 109.318L460.707 111.278ZM460.707 111.278L458.774 113.211L458.8 113.236L460.707 111.278ZM460.707 111.278L462.641 109.344L462.614 109.318L460.707 111.278ZM460.707 111.278L458.774 113.211L458.8 113.236L460.707 111.278ZM461.883 112.448L459.889 114.318L459.892 114.321L461.883 112.448ZM463.338 114.793L460.721 115.584L462.039 119.946L465.267 116.73L463.338 114.793ZM487.884 90.3377L489.813 92.2743L493.041 89.0585L488.685 87.7237L487.884 90.3377ZM484.704 87.9823L482.689 89.8296L482.708 89.8507L482.728 89.8714L484.704 87.9823ZM484.704 87.9823L486.719 86.1347L486.679 86.091L486.637 86.049L484.704 87.9823ZM484.704 87.9823L482.728 89.8714L482.749 89.8932L482.771 89.9149L484.704 87.9823ZM490.431 90.3372L489.63 87.7235L485.284 89.0564L488.498 92.2704L490.431 90.3372ZM514.843 114.749L512.91 116.682L516.013 119.786L517.431 115.632L514.843 114.749ZM517.155 120.61L515.222 122.543L515.244 122.565L515.266 122.586L517.155 120.61ZM517.155 120.61L519.089 118.677L519.051 118.639L519.013 118.604L517.155 120.61ZM517.155 120.61L515.266 122.586L515.298 122.616L517.155 120.61ZM514.843 117.564L517.431 116.682L516.013 112.528L512.91 115.631L514.843 117.564ZM490.565 141.843L488.631 139.91L485.528 143.013L489.682 144.431L490.565 141.843ZM487.749 141.843L488.632 144.431L492.778 143.016L489.686 139.914L487.749 141.843ZM463.341 117.345L465.277 115.415L462.04 112.167L460.722 116.559L463.341 117.345ZM461.883 119.699L459.892 117.825L459.889 117.828L461.883 119.699ZM487.319 85.442L485.343 87.3314L485.364 87.3535L485.386 87.3752L487.319 85.442ZM487.319 85.442L489.295 83.5529L489.274 83.5307L489.252 83.509L487.319 85.442ZM519.695 114.319L521.585 116.294L521.607 116.273L521.628 116.252L519.695 114.319ZM519.695 114.319L517.806 112.342L517.784 112.363L517.762 112.385L519.695 114.319ZM487.319 146.695L489.252 148.628L489.274 148.607L489.295 148.584L487.319 146.695ZM487.319 146.695L485.386 144.762L485.364 144.784L485.343 144.806L487.319 146.695ZM468.249 116.074L466.32 114.138L464.383 116.067L466.313 118.004L468.249 116.074ZM489.16 137.062L487.224 138.991L489.157 140.931L491.093 138.995L489.16 137.062ZM489.154 95.2462L491.087 93.3131L489.158 91.3835L487.225 93.3095L489.154 95.2462ZM510.065 116.157L511.998 118.09L513.931 116.157L511.998 114.224L510.065 116.157ZM461.758 123.667C462.018 123.408 462.311 123.123 462.614 122.828L458.802 118.909C458.505 119.197 458.184 119.51 457.892 119.801L461.758 123.667ZM453.02 129.441C456.514 128.199 459.598 125.828 461.758 123.667L457.892 119.801C456.077 121.616 453.662 123.41 451.189 124.29L453.02 129.441ZM440.009 126.943C444.174 131.109 449.444 130.713 453.02 129.441L451.189 124.29C448.68 125.182 445.964 125.166 443.875 123.077L440.009 126.943ZM440.009 105.194C434.003 111.2 434.003 120.937 440.009 126.943L443.875 123.077C440.004 119.207 440.004 112.931 443.875 109.06L440.009 105.194ZM453.026 102.702C449.452 101.428 444.178 101.024 440.009 105.194L443.875 109.06C445.964 106.971 448.681 106.958 451.189 107.852L453.026 102.702ZM461.758 108.479C459.6 106.32 456.518 103.948 453.026 102.702L451.189 107.852C453.663 108.734 456.077 110.53 457.892 112.345L461.758 108.479ZM462.614 109.318C462.311 109.023 462.018 108.738 461.758 108.479L457.892 112.345C458.183 112.637 458.503 112.947 458.8 113.236L462.614 109.318ZM463.877 110.577C463.541 110.219 463.049 109.741 462.614 109.318L458.8 113.236C459.275 113.698 459.66 114.074 459.889 114.318L463.877 110.577ZM463.908 110.611L463.874 110.574L459.892 114.321L459.926 114.357L463.908 110.611ZM465.955 114.002C465.4 112.166 464.243 110.966 463.908 110.611L459.926 114.357C460.203 114.651 460.563 115.061 460.721 115.584L465.955 114.002ZM465.267 116.73L465.542 116.456L461.683 112.583L461.408 112.856L465.267 116.73ZM465.542 116.456L489.543 92.5434L485.684 88.67L461.683 112.583L465.542 116.456ZM489.543 92.5434L489.813 92.2743L485.954 88.401L485.684 88.67L489.543 92.5434ZM485.255 92.1052C485.705 92.3908 486.32 92.7179 487.083 92.9516L488.685 87.7237C488.499 87.6669 488.331 87.5812 488.185 87.4886L485.255 92.1052ZM483.64 90.8024C483.948 91.1014 484.516 91.6361 485.255 92.1052L488.185 87.4886C487.929 87.3263 487.683 87.1069 487.448 86.8788L483.64 90.8024ZM482.728 89.8714C482.997 90.1528 483.328 90.5 483.64 90.8024L487.448 86.8788C487.224 86.6615 486.966 86.391 486.679 86.091L482.728 89.8714ZM482.669 89.8095L482.728 89.8714L486.679 86.091L486.621 86.0311L482.669 89.8095ZM481.646 88.7584C482.031 89.1436 482.357 89.4837 482.669 89.8095L486.621 86.0311C486.306 85.7022 485.944 85.3238 485.513 84.8922L481.646 88.7584ZM475.821 80.122C477.119 83.585 479.525 86.6373 481.646 88.7584L485.513 84.8922C483.703 83.0829 481.866 80.6725 480.941 78.2033L475.821 80.122ZM478.194 67.0087C473.955 71.2475 474.5 76.5959 475.821 80.122L480.941 78.2033C480.003 75.6993 479.962 72.973 482.06 70.875L478.194 67.0087ZM499.943 67.0087C493.937 61.0027 484.2 61.0027 478.194 67.0087L482.06 70.875C485.931 67.0043 492.206 67.0043 496.077 70.875L499.943 67.0087ZM502.441 80.0204C503.713 76.4441 504.109 71.1746 499.943 67.0087L496.077 70.875C498.166 72.9637 498.181 75.68 497.29 78.1888L502.441 80.0204ZM496.667 88.7584C498.828 86.5978 501.199 83.5146 502.441 80.0204L497.29 78.1888C496.41 80.6623 494.616 83.077 492.801 84.8921L496.667 88.7584ZM495.645 89.8096C495.956 89.4838 496.283 89.1435 496.667 88.7584L492.801 84.8921C492.37 85.3237 492.007 85.7019 491.693 86.0308L495.645 89.8096ZM495.586 89.871L495.645 89.8096L491.693 86.0308L491.634 86.0927L495.586 89.871ZM494.674 90.8023C494.985 90.4997 495.317 90.1526 495.586 89.871L491.634 86.0927C491.347 86.3928 491.09 86.6613 490.865 86.8787L494.674 90.8023ZM493.059 92.105C493.798 91.6359 494.366 91.1013 494.674 90.8023L490.865 86.8787C490.63 87.1068 490.385 87.3262 490.129 87.4885L493.059 92.105ZM491.233 92.9509C491.995 92.7172 492.609 92.3904 493.059 92.105L490.129 87.4885C489.983 87.5811 489.815 87.6667 489.63 87.7235L491.233 92.9509ZM488.498 92.2704L488.771 92.5427L492.637 88.6764L492.365 88.4041L488.498 92.2704ZM488.771 92.5427L512.771 116.543L516.637 112.677L492.637 88.6764L488.771 92.5427ZM512.771 116.543L512.91 116.682L516.776 112.816L516.637 112.677L512.771 116.543ZM517.431 115.632C517.487 115.467 517.565 115.316 517.649 115.185L513.032 112.256C512.774 112.663 512.482 113.204 512.256 113.866L517.431 115.632ZM517.649 115.185C517.811 114.929 518.03 114.683 518.259 114.448L514.335 110.64C514.036 110.948 513.501 111.516 513.032 112.256L517.649 115.185ZM518.259 114.448C518.476 114.224 518.744 113.967 519.045 113.68L515.267 109.727C514.985 109.997 514.637 110.328 514.335 110.64L518.259 114.448ZM519.045 113.68L519.106 113.621L515.328 109.669L515.267 109.727L519.045 113.68ZM519.106 113.621C519.435 113.306 519.814 112.944 520.245 112.512L516.379 108.646C515.993 109.031 515.654 109.358 515.328 109.669L519.106 113.621ZM520.245 112.512C522.054 110.703 524.465 108.866 526.934 107.941L525.016 102.821C521.552 104.119 518.5 106.525 516.379 108.646L520.245 112.512ZM526.934 107.941C529.438 107.003 532.164 106.962 534.262 109.06L538.129 105.194C533.89 100.955 528.542 101.5 525.016 102.821L526.934 107.941ZM534.262 109.06C538.133 112.931 538.133 119.207 534.262 123.077L538.129 126.943C544.135 120.937 544.135 111.2 538.129 105.194L534.262 109.06ZM534.262 123.077C532.174 125.166 529.457 125.182 526.949 124.29L525.117 129.441C528.693 130.713 533.963 131.109 538.129 126.943L534.262 123.077ZM526.949 124.29C524.475 123.41 522.06 121.616 520.245 119.801L516.379 123.667C518.54 125.828 521.623 128.199 525.117 129.441L526.949 124.29ZM520.245 119.801C519.814 119.37 519.436 119.007 519.106 118.693L515.328 122.645C515.654 122.956 515.994 123.283 516.379 123.667L520.245 119.801ZM519.106 118.693L519.045 118.634L515.266 122.586L515.328 122.645L519.106 118.693ZM519.045 118.634C518.745 118.347 518.476 118.089 518.259 117.865L514.335 121.674C514.637 121.985 514.985 122.317 515.266 122.586L519.045 118.634ZM518.259 117.865C518.03 117.63 517.811 117.385 517.649 117.129L513.032 120.059C513.501 120.798 514.036 121.366 514.335 121.674L518.259 117.865ZM517.649 117.129C517.565 116.997 517.487 116.847 517.431 116.682L512.256 118.447C512.482 119.11 512.774 119.651 513.032 120.059L517.649 117.129ZM512.91 115.631L512.771 115.77L516.637 119.636L516.776 119.497L512.91 115.631ZM512.771 115.77L488.771 139.771L492.637 143.637L516.637 119.636L512.771 115.77ZM488.771 139.771L488.631 139.91L492.498 143.776L492.637 143.637L488.771 139.771ZM493.059 140.032C492.652 139.774 492.11 139.482 491.447 139.256L489.682 144.431C489.847 144.487 489.998 144.565 490.129 144.649L493.059 140.032ZM494.674 141.335C494.366 141.036 493.798 140.501 493.059 140.032L490.129 144.649C490.385 144.811 490.631 145.03 490.865 145.259L494.674 141.335ZM495.586 142.266C495.317 141.985 494.985 141.637 494.674 141.335L490.865 145.259C491.09 145.476 491.347 145.744 491.634 146.044L495.586 142.266ZM495.645 142.328L495.586 142.266L491.634 146.044L491.693 146.106L495.645 142.328ZM496.667 143.379C496.283 142.994 495.956 142.653 495.645 142.328L491.693 146.106C492.007 146.436 492.37 146.814 492.801 147.245L496.667 143.379ZM502.441 152.117C501.199 148.623 498.828 145.54 496.667 143.379L492.801 147.245C494.616 149.06 496.41 151.475 497.29 153.949L502.441 152.117ZM499.943 165.129C504.109 160.963 503.713 155.693 502.441 152.117L497.29 153.949C498.182 156.457 498.166 159.174 496.077 161.262L499.943 165.129ZM478.194 165.129C484.2 171.134 493.937 171.134 499.943 165.129L496.077 161.262C492.206 165.133 485.931 165.133 482.06 161.262L478.194 165.129ZM475.821 152.015C474.5 155.542 473.955 160.89 478.194 165.129L482.06 161.262C479.962 159.164 480.003 156.438 480.941 153.934L475.821 152.015ZM481.646 143.379C479.525 145.5 477.119 148.552 475.821 152.015L480.941 153.934C481.866 151.465 483.703 149.055 485.513 147.245L481.646 143.379ZM482.669 142.327C482.358 142.653 482.031 142.994 481.646 143.379L485.513 147.245C485.944 146.814 486.306 146.435 486.621 146.106L482.669 142.327ZM482.728 142.266L482.669 142.327L486.621 146.106L486.68 146.045L482.728 142.266ZM483.64 141.335C483.328 141.637 482.997 141.984 482.728 142.266L486.68 146.045C486.967 145.745 487.224 145.476 487.448 145.259L483.64 141.335ZM485.255 140.032C484.516 140.501 483.948 141.036 483.64 141.335L487.448 145.259C487.683 145.03 487.929 144.811 488.185 144.649L485.255 140.032ZM486.867 139.256C486.204 139.482 485.663 139.774 485.255 140.032L488.185 144.649C488.316 144.565 488.467 144.487 488.632 144.431L486.867 139.256ZM489.686 139.914L489.544 139.771L485.671 143.631L485.813 143.773L489.686 139.914ZM489.544 139.771L465.544 115.683L461.67 119.542L485.671 143.631L489.544 139.771ZM465.544 115.683L465.277 115.415L461.404 119.274L461.67 119.542L465.544 115.683ZM463.907 121.537C464.243 121.181 465.406 119.975 465.959 118.131L460.722 116.559C460.565 117.083 460.205 117.493 459.927 117.788L463.907 121.537ZM463.874 121.572L463.907 121.537L459.927 117.788L459.892 117.825L463.874 121.572ZM462.614 122.828C463.049 122.405 463.541 121.927 463.877 121.569L459.889 117.828C459.66 118.073 459.277 118.446 458.802 118.909L462.614 122.828ZM456.383 115.971C456.655 116.235 456.866 116.44 457.042 116.617C457.22 116.797 457.32 116.907 457.376 116.974C457.435 117.046 457.389 117.004 457.324 116.872C457.249 116.717 457.15 116.438 457.15 116.073H462.618C462.618 114.828 461.961 113.94 461.593 113.494C461.206 113.026 460.673 112.514 460.189 112.045L456.383 115.971ZM455.314 114.922C455.72 115.328 456.08 115.677 456.383 115.971L460.189 112.045C459.885 111.751 459.553 111.429 459.181 111.056L455.314 114.922ZM446.452 111.638C447.181 110.909 448.215 110.662 449.965 111.286C451.759 111.925 453.729 113.337 455.314 114.922L459.181 111.056C457.251 109.127 454.614 107.139 451.801 106.136C448.945 105.117 445.373 104.985 442.586 107.771L446.452 111.638ZM446.452 120.499C444.005 118.052 444.005 114.085 446.452 111.638L442.586 107.771C438.004 112.354 438.004 119.784 442.586 124.366L446.452 120.499ZM455.314 117.224C453.73 118.808 451.761 120.218 449.968 120.855C448.219 121.477 447.182 121.23 446.452 120.499L442.586 124.366C445.371 127.151 448.941 127.023 451.799 126.007C454.613 125.006 457.25 123.02 459.181 121.09L455.314 117.224ZM456.383 116.176C456.08 116.469 455.72 116.818 455.314 117.224L459.181 121.09C459.553 120.717 459.885 120.396 460.189 120.101L456.383 116.176ZM457.15 116.073C457.15 115.708 457.249 115.429 457.324 115.275C457.389 115.142 457.435 115.1 457.376 115.172C457.32 115.24 457.22 115.349 457.042 115.529C456.866 115.707 456.655 115.912 456.383 116.176L460.189 120.101C460.673 119.632 461.206 119.121 461.593 118.652C461.961 118.206 462.618 117.318 462.618 116.073H457.15ZM493.499 73.4525C494.23 74.1825 494.477 75.2187 493.855 76.9677C493.217 78.7608 491.808 80.7299 490.224 82.3146L494.09 86.1808C496.02 84.2506 498.006 81.6131 499.007 78.7994C500.023 75.9416 500.151 72.3711 497.366 69.5862L493.499 73.4525ZM484.637 73.4525C487.085 71.0053 491.052 71.0053 493.499 73.4525L497.366 69.5862C492.783 65.0037 485.354 65.0038 480.771 69.5862L484.637 73.4525ZM488.09 82.3146C486.488 80.7131 485.031 78.7306 484.354 76.9243C483.691 75.1546 483.938 74.1517 484.637 73.4525L480.771 69.5862C477.955 72.4018 478.171 76.0057 479.234 78.8429C480.284 81.6433 482.31 84.2676 484.224 86.1809L488.09 82.3146ZM489.295 83.5529C488.971 83.2144 488.572 82.7963 488.09 82.3146L484.224 86.1809C484.657 86.6146 485.019 86.9928 485.343 87.3314L489.295 83.5529ZM489.157 84.15C489.543 84.15 489.841 84.2565 490.012 84.3409C490.161 84.414 490.22 84.4728 490.165 84.4267C490.115 84.3848 490.024 84.302 489.866 84.1437C489.71 83.9873 489.53 83.7992 489.295 83.5529L485.343 87.3314C485.755 87.7631 486.224 88.2586 486.656 88.6202C487.063 88.9606 487.927 89.6178 489.157 89.6178V84.15ZM489.019 83.5529C488.783 83.7992 488.603 83.9874 488.447 84.1437C488.29 84.302 488.199 84.3848 488.149 84.4267C488.094 84.4728 488.153 84.4141 488.301 84.3409C488.473 84.2565 488.77 84.15 489.157 84.15V89.6178C490.387 89.6177 491.251 88.9606 491.658 88.6202C492.09 88.2586 492.558 87.7633 492.971 87.3315L489.019 83.5529ZM490.224 82.3146C489.742 82.7963 489.342 83.2145 489.019 83.5529L492.971 87.3315C493.295 86.9929 493.656 86.6147 494.09 86.1808L490.224 82.3146ZM535.551 124.366C540.133 119.784 540.133 112.354 535.551 107.771L531.685 111.638C534.132 114.085 534.132 118.052 531.685 120.499L535.551 124.366ZM518.957 121.09C520.887 123.02 523.524 125.006 526.338 126.007C529.196 127.023 532.766 127.151 535.551 124.366L531.685 120.499C530.955 121.23 529.919 121.477 528.17 120.855C526.377 120.218 524.408 118.808 522.823 117.224L518.957 121.09ZM517.806 119.971C518.144 120.295 518.523 120.656 518.957 121.09L522.823 117.224C522.341 116.742 521.923 116.343 521.584 116.019L517.806 119.971ZM515.52 116.157C515.52 117.387 516.177 118.251 516.517 118.658C516.879 119.09 517.374 119.558 517.806 119.971L521.584 116.019C521.338 115.783 521.15 115.603 520.993 115.448C520.835 115.29 520.753 115.199 520.711 115.149C520.664 115.094 520.723 115.153 520.796 115.301C520.881 115.473 520.987 115.77 520.987 116.157L515.52 116.157ZM517.806 112.342C517.375 112.755 516.879 113.224 516.517 113.656C516.177 114.063 515.52 114.927 515.52 116.157L520.987 116.157C520.987 116.543 520.881 116.841 520.796 117.012C520.723 117.161 520.665 117.22 520.711 117.165C520.753 117.114 520.835 117.024 520.994 116.866C521.15 116.71 521.338 116.53 521.585 116.294L517.806 112.342ZM518.956 111.224C518.523 111.657 518.145 112.019 517.806 112.342L521.585 116.294C521.923 115.971 522.341 115.571 522.823 115.09L518.956 111.224ZM535.551 107.771C532.736 104.956 529.132 105.171 526.295 106.235C523.494 107.284 520.87 109.31 518.956 111.224L522.823 115.09C524.424 113.488 526.407 112.031 528.213 111.355C529.983 110.691 530.986 110.938 531.685 111.638L535.551 107.771ZM490.224 149.823C491.808 151.407 493.218 153.377 493.855 155.17C494.477 156.919 494.23 157.955 493.499 158.685L497.366 162.551C500.151 159.766 500.023 156.196 499.007 153.338C498.006 150.524 496.02 147.887 494.09 145.957L490.224 149.823ZM489.019 148.584C489.343 148.923 489.742 149.341 490.224 149.823L494.09 145.957C493.656 145.522 493.295 145.144 492.971 144.806L489.019 148.584ZM489.157 147.987C488.77 147.987 488.473 147.881 488.301 147.796C488.153 147.723 488.094 147.664 488.149 147.711C488.199 147.753 488.29 147.835 488.448 147.993C488.603 148.15 488.783 148.338 489.019 148.584L492.971 144.806C492.558 144.374 492.09 143.878 491.658 143.517C491.251 143.177 490.387 142.52 489.157 142.52V147.987ZM489.295 148.584C489.53 148.338 489.71 148.15 489.866 147.993C490.024 147.835 490.115 147.753 490.165 147.711C490.22 147.664 490.161 147.723 490.012 147.796C489.841 147.881 489.543 147.987 489.157 147.987V142.52C487.927 142.52 487.063 143.177 486.656 143.517C486.224 143.878 485.755 144.374 485.343 144.806L489.295 148.584ZM488.09 149.823C488.572 149.341 488.971 148.923 489.295 148.584L485.343 144.806C485.019 145.144 484.657 145.522 484.224 145.956L488.09 149.823ZM484.637 158.685C483.938 157.986 483.691 156.983 484.354 155.213C485.031 153.407 486.488 151.424 488.09 149.823L484.224 145.956C482.31 147.87 480.284 150.494 479.234 153.294C478.171 156.132 477.955 159.735 480.771 162.551L484.637 158.685ZM493.499 158.685C491.052 161.132 487.085 161.132 484.637 158.685L480.771 162.551C485.354 167.133 492.783 167.133 497.366 162.551L493.499 158.685ZM466.313 118.004L487.224 138.991L491.097 135.132L470.186 114.145L466.313 118.004ZM487.225 93.3095L466.32 114.138L470.179 118.011L491.084 97.1828L487.225 93.3095ZM511.998 114.224L491.087 93.3131L487.221 97.1792L508.132 118.09L511.998 114.224ZM491.093 138.995L511.998 118.09L508.132 114.224L487.227 135.129L491.093 138.995Z" fill="white"/>
<path d="M460.707 111.278L462.641 109.344L462.614 109.318L460.707 111.278ZM460.707 111.278L458.774 113.211L458.8 113.236L460.707 111.278ZM460.707 111.278L462.641 109.344L462.614 109.318L460.707 111.278ZM460.707 111.278L458.774 113.211L458.8 113.236L460.707 111.278ZM461.883 112.448L459.889 114.318L459.892 114.321L461.883 112.448ZM463.338 114.793L460.721 115.584L462.039 119.946L465.267 116.73L463.338 114.793ZM487.884 90.3377L489.813 92.2743L493.041 89.0585L488.685 87.7237L487.884 90.3377ZM484.704 87.9823L482.689 89.8296L482.708 89.8507L482.728 89.8714L484.704 87.9823ZM484.704 87.9823L486.719 86.1347L486.679 86.091L486.637 86.049L484.704 87.9823ZM484.704 87.9823L482.728 89.8714L482.749 89.8932L482.771 89.9149L484.704 87.9823ZM490.431 90.3372L489.63 87.7235L485.284 89.0564L488.498 92.2704L490.431 90.3372ZM514.843 114.749L512.91 116.682L516.013 119.786L517.431 115.632L514.843 114.749ZM517.155 120.61L515.222 122.543L515.244 122.565L515.266 122.586L517.155 120.61ZM517.155 120.61L519.089 118.677L519.051 118.639L519.013 118.604L517.155 120.61ZM517.155 120.61L515.266 122.586L515.298 122.616L517.155 120.61ZM514.843 117.564L517.431 116.682L516.013 112.528L512.91 115.631L514.843 117.564ZM490.565 141.843L488.631 139.91L485.528 143.013L489.682 144.431L490.565 141.843ZM487.749 141.843L488.632 144.431L492.778 143.016L489.686 139.914L487.749 141.843ZM463.341 117.345L465.277 115.415L462.04 112.167L460.722 116.559L463.341 117.345ZM461.883 119.699L459.892 117.825L459.889 117.828L461.883 119.699ZM487.319 85.442L485.343 87.3314L485.364 87.3535L485.386 87.3752L487.319 85.442ZM487.319 85.442L489.295 83.5529L489.274 83.5307L489.252 83.509L487.319 85.442ZM519.695 114.319L521.585 116.294L521.607 116.273L521.628 116.252L519.695 114.319ZM519.695 114.319L517.806 112.342L517.784 112.363L517.762 112.385L519.695 114.319ZM487.319 146.695L489.252 148.628L489.274 148.607L489.295 148.584L487.319 146.695ZM487.319 146.695L485.386 144.762L485.364 144.784L485.343 144.806L487.319 146.695ZM468.249 116.074L466.32 114.138L464.383 116.067L466.313 118.004L468.249 116.074ZM489.16 137.062L487.224 138.991L489.157 140.931L491.093 138.995L489.16 137.062ZM489.154 95.2462L491.087 93.3131L489.158 91.3835L487.225 93.3095L489.154 95.2462ZM510.065 116.157L511.998 118.09L513.931 116.157L511.998 114.224L510.065 116.157ZM461.758 123.667C462.018 123.408 462.311 123.123 462.614 122.828L458.802 118.909C458.505 119.197 458.184 119.51 457.892 119.801L461.758 123.667ZM453.02 129.441C456.514 128.199 459.598 125.828 461.758 123.667L457.892 119.801C456.077 121.616 453.662 123.41 451.189 124.29L453.02 129.441ZM440.009 126.943C444.174 131.109 449.444 130.713 453.02 129.441L451.189 124.29C448.68 125.182 445.964 125.166 443.875 123.077L440.009 126.943ZM440.009 105.194C434.003 111.2 434.003 120.937 440.009 126.943L443.875 123.077C440.004 119.207 440.004 112.931 443.875 109.06L440.009 105.194ZM453.026 102.702C449.452 101.428 444.178 101.024 440.009 105.194L443.875 109.06C445.964 106.971 448.681 106.958 451.189 107.852L453.026 102.702ZM461.758 108.479C459.6 106.32 456.518 103.948 453.026 102.702L451.189 107.852C453.663 108.734 456.077 110.53 457.892 112.345L461.758 108.479ZM462.614 109.318C462.311 109.023 462.018 108.738 461.758 108.479L457.892 112.345C458.183 112.637 458.503 112.947 458.8 113.236L462.614 109.318ZM463.877 110.577C463.541 110.219 463.049 109.741 462.614 109.318L458.8 113.236C459.275 113.698 459.66 114.074 459.889 114.318L463.877 110.577ZM463.908 110.611L463.874 110.574L459.892 114.321L459.926 114.357L463.908 110.611ZM465.955 114.002C465.4 112.166 464.243 110.966 463.908 110.611L459.926 114.357C460.203 114.651 460.563 115.061 460.721 115.584L465.955 114.002ZM465.267 116.73L465.542 116.456L461.683 112.583L461.408 112.856L465.267 116.73ZM465.542 116.456L489.543 92.5434L485.684 88.67L461.683 112.583L465.542 116.456ZM489.543 92.5434L489.813 92.2743L485.954 88.401L485.684 88.67L489.543 92.5434ZM485.255 92.1052C485.705 92.3908 486.32 92.7179 487.083 92.9516L488.685 87.7237C488.499 87.6669 488.331 87.5812 488.185 87.4886L485.255 92.1052ZM483.64 90.8024C483.948 91.1014 484.516 91.6361 485.255 92.1052L488.185 87.4886C487.929 87.3263 487.683 87.1069 487.448 86.8788L483.64 90.8024ZM482.728 89.8714C482.997 90.1528 483.328 90.5 483.64 90.8024L487.448 86.8788C487.224 86.6615 486.966 86.391 486.679 86.091L482.728 89.8714ZM482.669 89.8095L482.728 89.8714L486.679 86.091L486.621 86.0311L482.669 89.8095ZM481.646 88.7584C482.031 89.1436 482.357 89.4837 482.669 89.8095L486.621 86.0311C486.306 85.7022 485.944 85.3238 485.513 84.8922L481.646 88.7584ZM475.821 80.122C477.119 83.585 479.525 86.6373 481.646 88.7584L485.513 84.8922C483.703 83.0829 481.866 80.6725 480.941 78.2033L475.821 80.122ZM478.194 67.0087C473.955 71.2475 474.5 76.5959 475.821 80.122L480.941 78.2033C480.003 75.6993 479.962 72.973 482.06 70.875L478.194 67.0087ZM499.943 67.0087C493.937 61.0027 484.2 61.0027 478.194 67.0087L482.06 70.875C485.931 67.0043 492.206 67.0043 496.077 70.875L499.943 67.0087ZM502.441 80.0204C503.713 76.4441 504.109 71.1746 499.943 67.0087L496.077 70.875C498.166 72.9637 498.181 75.68 497.29 78.1888L502.441 80.0204ZM496.667 88.7584C498.828 86.5978 501.199 83.5146 502.441 80.0204L497.29 78.1888C496.41 80.6623 494.616 83.077 492.801 84.8921L496.667 88.7584ZM495.645 89.8096C495.956 89.4838 496.283 89.1435 496.667 88.7584L492.801 84.8921C492.37 85.3237 492.007 85.7019 491.693 86.0308L495.645 89.8096ZM495.586 89.871L495.645 89.8096L491.693 86.0308L491.634 86.0927L495.586 89.871ZM494.674 90.8023C494.985 90.4997 495.317 90.1526 495.586 89.871L491.634 86.0927C491.347 86.3928 491.09 86.6613 490.865 86.8787L494.674 90.8023ZM493.059 92.105C493.798 91.6359 494.366 91.1013 494.674 90.8023L490.865 86.8787C490.63 87.1068 490.385 87.3262 490.129 87.4885L493.059 92.105ZM491.233 92.9509C491.995 92.7172 492.609 92.3904 493.059 92.105L490.129 87.4885C489.983 87.5811 489.815 87.6667 489.63 87.7235L491.233 92.9509ZM488.498 92.2704L488.771 92.5427L492.637 88.6764L492.365 88.4041L488.498 92.2704ZM488.771 92.5427L512.771 116.543L516.637 112.677L492.637 88.6764L488.771 92.5427ZM512.771 116.543L512.91 116.682L516.776 112.816L516.637 112.677L512.771 116.543ZM517.431 115.632C517.487 115.467 517.565 115.316 517.649 115.185L513.032 112.256C512.774 112.663 512.482 113.204 512.256 113.866L517.431 115.632ZM517.649 115.185C517.811 114.929 518.03 114.683 518.259 114.448L514.335 110.64C514.036 110.948 513.501 111.516 513.032 112.256L517.649 115.185ZM518.259 114.448C518.476 114.224 518.744 113.967 519.045 113.68L515.267 109.727C514.985 109.997 514.637 110.328 514.335 110.64L518.259 114.448ZM519.045 113.68L519.106 113.621L515.328 109.669L515.267 109.727L519.045 113.68ZM519.106 113.621C519.435 113.306 519.814 112.944 520.245 112.512L516.379 108.646C515.993 109.031 515.654 109.358 515.328 109.669L519.106 113.621ZM520.245 112.512C522.054 110.703 524.465 108.866 526.934 107.941L525.016 102.821C521.552 104.119 518.5 106.525 516.379 108.646L520.245 112.512ZM526.934 107.941C529.438 107.003 532.164 106.962 534.262 109.06L538.129 105.194C533.89 100.955 528.542 101.5 525.016 102.821L526.934 107.941ZM534.262 109.06C538.133 112.931 538.133 119.207 534.262 123.077L538.129 126.943C544.135 120.937 544.135 111.2 538.129 105.194L534.262 109.06ZM534.262 123.077C532.174 125.166 529.457 125.182 526.949 124.29L525.117 129.441C528.693 130.713 533.963 131.109 538.129 126.943L534.262 123.077ZM526.949 124.29C524.475 123.41 522.06 121.616 520.245 119.801L516.379 123.667C518.54 125.828 521.623 128.199 525.117 129.441L526.949 124.29ZM520.245 119.801C519.814 119.37 519.436 119.007 519.106 118.693L515.328 122.645C515.654 122.956 515.994 123.283 516.379 123.667L520.245 119.801ZM519.106 118.693L519.045 118.634L515.266 122.586L515.328 122.645L519.106 118.693ZM519.045 118.634C518.745 118.347 518.476 118.089 518.259 117.865L514.335 121.674C514.637 121.985 514.985 122.317 515.266 122.586L519.045 118.634ZM518.259 117.865C518.03 117.63 517.811 117.385 517.649 117.129L513.032 120.059C513.501 120.798 514.036 121.366 514.335 121.674L518.259 117.865ZM517.649 117.129C517.565 116.997 517.487 116.847 517.431 116.682L512.256 118.447C512.482 119.11 512.774 119.651 513.032 120.059L517.649 117.129ZM512.91 115.631L512.771 115.77L516.637 119.636L516.776 119.497L512.91 115.631ZM512.771 115.77L488.771 139.771L492.637 143.637L516.637 119.636L512.771 115.77ZM488.771 139.771L488.631 139.91L492.498 143.776L492.637 143.637L488.771 139.771ZM493.059 140.032C492.652 139.774 492.11 139.482 491.447 139.256L489.682 144.431C489.847 144.487 489.998 144.565 490.129 144.649L493.059 140.032ZM494.674 141.335C494.366 141.036 493.798 140.501 493.059 140.032L490.129 144.649C490.385 144.811 490.631 145.03 490.865 145.259L494.674 141.335ZM495.586 142.266C495.317 141.985 494.985 141.637 494.674 141.335L490.865 145.259C491.09 145.476 491.347 145.744 491.634 146.044L495.586 142.266ZM495.645 142.328L495.586 142.266L491.634 146.044L491.693 146.106L495.645 142.328ZM496.667 143.379C496.283 142.994 495.956 142.653 495.645 142.328L491.693 146.106C492.007 146.436 492.37 146.814 492.801 147.245L496.667 143.379ZM502.441 152.117C501.199 148.623 498.828 145.54 496.667 143.379L492.801 147.245C494.616 149.06 496.41 151.475 497.29 153.949L502.441 152.117ZM499.943 165.129C504.109 160.963 503.713 155.693 502.441 152.117L497.29 153.949C498.182 156.457 498.166 159.174 496.077 161.262L499.943 165.129ZM478.194 165.129C484.2 171.134 493.937 171.134 499.943 165.129L496.077 161.262C492.206 165.133 485.931 165.133 482.06 161.262L478.194 165.129ZM475.821 152.015C474.5 155.542 473.955 160.89 478.194 165.129L482.06 161.262C479.962 159.164 480.003 156.438 480.941 153.934L475.821 152.015ZM481.646 143.379C479.525 145.5 477.119 148.552 475.821 152.015L480.941 153.934C481.866 151.465 483.703 149.055 485.513 147.245L481.646 143.379ZM482.669 142.327C482.358 142.653 482.031 142.994 481.646 143.379L485.513 147.245C485.944 146.814 486.306 146.435 486.621 146.106L482.669 142.327ZM482.728 142.266L482.669 142.327L486.621 146.106L486.68 146.045L482.728 142.266ZM483.64 141.335C483.328 141.637 482.997 141.984 482.728 142.266L486.68 146.045C486.967 145.745 487.224 145.476 487.448 145.259L483.64 141.335ZM485.255 140.032C484.516 140.501 483.948 141.036 483.64 141.335L487.448 145.259C487.683 145.03 487.929 144.811 488.185 144.649L485.255 140.032ZM486.867 139.256C486.204 139.482 485.663 139.774 485.255 140.032L488.185 144.649C488.316 144.565 488.467 144.487 488.632 144.431L486.867 139.256ZM489.686 139.914L489.544 139.771L485.671 143.631L485.813 143.773L489.686 139.914ZM489.544 139.771L465.544 115.683L461.67 119.542L485.671 143.631L489.544 139.771ZM465.544 115.683L465.277 115.415L461.404 119.274L461.67 119.542L465.544 115.683ZM463.907 121.537C464.243 121.181 465.406 119.975 465.959 118.131L460.722 116.559C460.565 117.083 460.205 117.493 459.927 117.788L463.907 121.537ZM463.874 121.572L463.907 121.537L459.927 117.788L459.892 117.825L463.874 121.572ZM462.614 122.828C463.049 122.405 463.541 121.927 463.877 121.569L459.889 117.828C459.66 118.073 459.277 118.446 458.802 118.909L462.614 122.828ZM456.383 115.971C456.655 116.235 456.866 116.44 457.042 116.617C457.22 116.797 457.32 116.907 457.376 116.974C457.435 117.046 457.389 117.004 457.324 116.872C457.249 116.717 457.15 116.438 457.15 116.073H462.618C462.618 114.828 461.961 113.94 461.593 113.494C461.206 113.026 460.673 112.514 460.189 112.045L456.383 115.971ZM455.314 114.922C455.72 115.328 456.08 115.677 456.383 115.971L460.189 112.045C459.885 111.751 459.553 111.429 459.181 111.056L455.314 114.922ZM446.452 111.638C447.181 110.909 448.215 110.662 449.965 111.286C451.759 111.925 453.729 113.337 455.314 114.922L459.181 111.056C457.251 109.127 454.614 107.139 451.801 106.136C448.945 105.117 445.373 104.985 442.586 107.771L446.452 111.638ZM446.452 120.499C444.005 118.052 444.005 114.085 446.452 111.638L442.586 107.771C438.004 112.354 438.004 119.784 442.586 124.366L446.452 120.499ZM455.314 117.224C453.73 118.808 451.761 120.218 449.968 120.855C448.219 121.477 447.182 121.23 446.452 120.499L442.586 124.366C445.371 127.151 448.941 127.023 451.799 126.007C454.613 125.006 457.25 123.02 459.181 121.09L455.314 117.224ZM456.383 116.176C456.08 116.469 455.72 116.818 455.314 117.224L459.181 121.09C459.553 120.717 459.885 120.396 460.189 120.101L456.383 116.176ZM457.15 116.073C457.15 115.708 457.249 115.429 457.324 115.275C457.389 115.142 457.435 115.1 457.376 115.172C457.32 115.24 457.22 115.349 457.042 115.529C456.866 115.707 456.655 115.912 456.383 116.176L460.189 120.101C460.673 119.632 461.206 119.121 461.593 118.652C461.961 118.206 462.618 117.318 462.618 116.073H457.15ZM493.499 73.4525C494.23 74.1825 494.477 75.2187 493.855 76.9677C493.217 78.7608 491.808 80.7299 490.224 82.3146L494.09 86.1808C496.02 84.2506 498.006 81.6131 499.007 78.7994C500.023 75.9416 500.151 72.3711 497.366 69.5862L493.499 73.4525ZM484.637 73.4525C487.085 71.0053 491.052 71.0053 493.499 73.4525L497.366 69.5862C492.783 65.0037 485.354 65.0038 480.771 69.5862L484.637 73.4525ZM488.09 82.3146C486.488 80.7131 485.031 78.7306 484.354 76.9243C483.691 75.1546 483.938 74.1517 484.637 73.4525L480.771 69.5862C477.955 72.4018 478.171 76.0057 479.234 78.8429C480.284 81.6433 482.31 84.2676 484.224 86.1809L488.09 82.3146ZM489.295 83.5529C488.971 83.2144 488.572 82.7963 488.09 82.3146L484.224 86.1809C484.657 86.6146 485.019 86.9928 485.343 87.3314L489.295 83.5529ZM489.157 84.15C489.543 84.15 489.841 84.2565 490.012 84.3409C490.161 84.414 490.22 84.4728 490.165 84.4267C490.115 84.3848 490.024 84.302 489.866 84.1437C489.71 83.9873 489.53 83.7992 489.295 83.5529L485.343 87.3314C485.755 87.7631 486.224 88.2586 486.656 88.6202C487.063 88.9606 487.927 89.6178 489.157 89.6178V84.15ZM489.019 83.5529C488.783 83.7992 488.603 83.9874 488.447 84.1437C488.29 84.302 488.199 84.3848 488.149 84.4267C488.094 84.4728 488.153 84.4141 488.301 84.3409C488.473 84.2565 488.77 84.15 489.157 84.15V89.6178C490.387 89.6177 491.251 88.9606 491.658 88.6202C492.09 88.2586 492.558 87.7633 492.971 87.3315L489.019 83.5529ZM490.224 82.3146C489.742 82.7963 489.342 83.2145 489.019 83.5529L492.971 87.3315C493.295 86.9929 493.656 86.6147 494.09 86.1808L490.224 82.3146ZM535.551 124.366C540.133 119.784 540.133 112.354 535.551 107.771L531.685 111.638C534.132 114.085 534.132 118.052 531.685 120.499L535.551 124.366ZM518.957 121.09C520.887 123.02 523.524 125.006 526.338 126.007C529.196 127.023 532.766 127.151 535.551 124.366L531.685 120.499C530.955 121.23 529.919 121.477 528.17 120.855C526.377 120.218 524.408 118.808 522.823 117.224L518.957 121.09ZM517.806 119.971C518.144 120.295 518.523 120.656 518.957 121.09L522.823 117.224C522.341 116.742 521.923 116.343 521.584 116.019L517.806 119.971ZM515.52 116.157C515.52 117.387 516.177 118.251 516.517 118.658C516.879 119.09 517.374 119.558 517.806 119.971L521.584 116.019C521.338 115.783 521.15 115.603 520.993 115.448C520.835 115.29 520.753 115.199 520.711 115.149C520.664 115.094 520.723 115.153 520.796 115.301C520.881 115.473 520.987 115.77 520.987 116.157L515.52 116.157ZM517.806 112.342C517.375 112.755 516.879 113.224 516.517 113.656C516.177 114.063 515.52 114.927 515.52 116.157L520.987 116.157C520.987 116.543 520.881 116.841 520.796 117.012C520.723 117.161 520.665 117.22 520.711 117.165C520.753 117.114 520.835 117.024 520.994 116.866C521.15 116.71 521.338 116.53 521.585 116.294L517.806 112.342ZM518.956 111.224C518.523 111.657 518.145 112.019 517.806 112.342L521.585 116.294C521.923 115.971 522.341 115.571 522.823 115.09L518.956 111.224ZM535.551 107.771C532.736 104.956 529.132 105.171 526.295 106.235C523.494 107.284 520.87 109.31 518.956 111.224L522.823 115.09C524.424 113.488 526.407 112.031 528.213 111.355C529.983 110.691 530.986 110.938 531.685 111.638L535.551 107.771ZM490.224 149.823C491.808 151.407 493.218 153.377 493.855 155.17C494.477 156.919 494.23 157.955 493.499 158.685L497.366 162.551C500.151 159.766 500.023 156.196 499.007 153.338C498.006 150.524 496.02 147.887 494.09 145.957L490.224 149.823ZM489.019 148.584C489.343 148.923 489.742 149.341 490.224 149.823L494.09 145.957C493.656 145.522 493.295 145.144 492.971 144.806L489.019 148.584ZM489.157 147.987C488.77 147.987 488.473 147.881 488.301 147.796C488.153 147.723 488.094 147.664 488.149 147.711C488.199 147.753 488.29 147.835 488.448 147.993C488.603 148.15 488.783 148.338 489.019 148.584L492.971 144.806C492.558 144.374 492.09 143.878 491.658 143.517C491.251 143.177 490.387 142.52 489.157 142.52V147.987ZM489.295 148.584C489.53 148.338 489.71 148.15 489.866 147.993C490.024 147.835 490.115 147.753 490.165 147.711C490.22 147.664 490.161 147.723 490.012 147.796C489.841 147.881 489.543 147.987 489.157 147.987V142.52C487.927 142.52 487.063 143.177 486.656 143.517C486.224 143.878 485.755 144.374 485.343 144.806L489.295 148.584ZM488.09 149.823C488.572 149.341 488.971 148.923 489.295 148.584L485.343 144.806C485.019 145.144 484.657 145.522 484.224 145.956L488.09 149.823ZM484.637 158.685C483.938 157.986 483.691 156.983 484.354 155.213C485.031 153.407 486.488 151.424 488.09 149.823L484.224 145.956C482.31 147.87 480.284 150.494 479.234 153.294C478.171 156.132 477.955 159.735 480.771 162.551L484.637 158.685ZM493.499 158.685C491.052 161.132 487.085 161.132 484.637 158.685L480.771 162.551C485.354 167.133 492.783 167.133 497.366 162.551L493.499 158.685ZM466.313 118.004L487.224 138.991L491.097 135.132L470.186 114.145L466.313 118.004ZM487.225 93.3095L466.32 114.138L470.179 118.011L491.084 97.1828L487.225 93.3095ZM511.998 114.224L491.087 93.3131L487.221 97.1792L508.132 118.09L511.998 114.224ZM491.093 138.995L511.998 118.09L508.132 114.224L487.227 135.129L491.093 138.995Z" fill="url(#paint1_linear_112_248)" fill-opacity="0.5"/>
<defs>
<linearGradient id="paint0_linear_112_248" x1="541.724" y1="42.5" x2="541.724" y2="155" gradientUnits="userSpaceOnUse">
<stop stop-color="white" stop-opacity="0"/>
<stop offset="1" stop-color="#FFD138"/>
</linearGradient>
<linearGradient id="paint1_linear_112_248" x1="489.069" y1="62.5042" x2="489.069" y2="169.633" gradientUnits="userSpaceOnUse">
<stop stop-color="white" stop-opacity="0"/>
<stop offset="1" stop-color="#FFD138"/>
</linearGradient>
</defs>
</svg>
